<?xml version="1.0" encoding="utf-8"?>
<!-- Generator: Adobe Illustrator 24.3.0, SVG Export Plug-In . SVG Version: 6.00 Build 0)  -->
<svg version="1.1" id="Layer_1" xmlns="http://www.w3.org/2000/svg" xmlns:xlink="http://www.w3.org/1999/xlink" x="0px" y="0px"
	 width="771px" height="348px" viewBox="0 0 771 348" style="enable-background:new 0 0 771 348;" xml:space="preserve">
<style type="text/css">
	.st0{fill:#ED2227;}
</style>
<path d="M80.7,239.6l-22.2,90.5h-51l54.7-223h85c15.9,0,28.1,3.2,36.6,9.2c8.5,6.1,12.6,15,12.6,26.8c0,4.8-0.7,9.9-2.2,15
	l-7.8,30.6c-4.1,16.2-12.6,29-24.7,37.6c-12.2,8.9-28.1,13.4-46.9,13.4H80.7z M136.5,184.8l5.5-22.9c0.4-1,0.7-2.5,0.7-4.5
	c0-7.6-5.2-11.5-15.5-11.5h-23.6l-13.3,54.8h23.6C126.1,200.7,133.9,195.3,136.5,184.8z"/>
<path d="M258,330.1l54.7-223h118.9l-9.6,38.9h-68l-11.8,48.4h64.3l-9.6,38.9h-64.3l-14.4,58h68l-9.2,38.9H258z"/>
<path d="M456.7,332c-15.9,0-27.7-3.2-35.8-9.2c-8.5-6.1-12.6-15-12.6-26.8c0-5.7,0.7-10.8,1.8-15l30.7-124.9
	c4.1-16.2,12.6-29,25.1-37.9c12.2-8.6,28.1-13.1,46.9-13.1h25.9c15.9,0,27.7,3.2,36.2,9.2c8.1,6.4,12.2,15.3,12.2,26.8
	c0,5.7-0.7,10.8-1.8,15l-9.2,37h-51l8.1-33.1c0.4-1.3,0.7-2.9,0.7-4.8c0-7.3-5.2-11.2-15.1-11.2h-5.2c-12.2,0-19.9,5.4-22.5,15.9
	l-28.8,117.2c-0.4,1-0.7,2.5-0.7,4.5c0,7.6,5.2,11.5,15.1,11.5h5.2c12.2,0,19.9-5.4,22.5-15.9l10.3-42.7h51L554.6,281
	c-4.1,16.2-12.6,29-24.7,37.6c-12.6,8.9-28.4,13.4-47.3,13.4H456.7z"/>
<path d="M658.4,330.1l23.6-96.9h-42.1l-23.6,96.9h-51l54.7-223h51l-21.4,87.3h42.1l21.4-87.3h51l-54.7,223H658.4z"/>
<polygon class="st0" points="520.7,7.3 286,104.3 285.6,56.6 51.6,239.2 221.5,146 222.4,146.6 177.5,330.1 228.4,330.1 
	269.9,160.8 "/>
</svg>
